<svg width="498" height="188" fill="none" xmlns="http://www.w3.org/2000/svg"><rect x="91" y="98" width="383" height="16" rx="8" fill="#909090"/><rect x="74" y="98" width="310" height="16" rx="8" fill="#237EA3"/><path d="M75.166 136v-8.566h1.078v7.605h3.744V136h-4.822zm11.736-3.229c0 1.051-.265 1.872-.796 2.461-.532.59-1.266.885-2.204.885-.582 0-1.097-.135-1.546-.404a2.689 2.689 0 01-1.038-1.172c-.242-.508-.363-1.098-.363-1.77 0-1.046.262-1.861.785-2.443.524-.586 1.258-.879 2.203-.879.907 0 1.625.299 2.157.897.535.593.802 1.402.802 2.425zm-4.857 0c0 .809.158 1.424.474 1.846.32.418.791.627 1.413.627.613 0 1.08-.209 1.4-.627.32-.422.48-1.037.48-1.846 0-.808-.162-1.416-.486-1.822-.32-.41-.79-.615-1.412-.615-1.246 0-1.87.812-1.87 2.437zM93.717 136l-1.102-3.621c-.101-.301-.25-.869-.445-1.705h-.047c-.164.762-.309 1.334-.434 1.717L90.535 136H89.34l-1.764-6.434h1.09l.926 3.61c.215.824.342 1.406.38 1.746h.047l.083-.363c.12-.559.238-1.014.351-1.366l1.143-3.627h1.148l1.108 3.627.123.44c.047.152.09.305.129.457.039.148.074.295.105.439.031.141.055.268.07.381h.053c.035-.297.178-.933.428-1.91l.902-3.434h1.078L94.953 136h-1.236zm6.914.117c-.965 0-1.723-.291-2.274-.873-.546-.586-.82-1.39-.82-2.414 0-1.031.256-1.851.768-2.461.511-.613 1.203-.92 2.074-.92.809 0 1.453.262 1.933.785.481.52.721 1.225.721 2.116v.638h-4.406c.02.731.205 1.285.557 1.664.351.379.849.569 1.494.569.343 0 .67-.03.978-.088a5.81 5.81 0 001.084-.358v.926c-.355.153-.689.26-1.002.322a5.665 5.665 0 01-1.107.094zm-.264-5.806c-.504 0-.902.162-1.195.486-.293.324-.467.775-.522 1.353h3.276c-.008-.601-.147-1.058-.416-1.371-.27-.312-.651-.468-1.143-.468zm8.49 3.914c0 .601-.224 1.068-.673 1.4-.45.328-1.08.492-1.893.492-.848 0-1.521-.135-2.021-.404v-.961c.707.344 1.388.516 2.044.516.532 0 .918-.086 1.161-.258a.808.808 0 00.363-.692c0-.254-.117-.468-.352-.644-.23-.176-.642-.377-1.236-.604-.605-.234-1.031-.433-1.277-.597a1.725 1.725 0 01-.545-.563 1.547 1.547 0 01-.17-.756c0-.527.215-.943.644-1.248.43-.304 1.02-.457 1.77-.457.73 0 1.414.145 2.051.434l-.358.838c-.652-.274-1.24-.41-1.763-.41-.438 0-.77.07-.997.21-.226.137-.339.327-.339.569 0 .234.097.43.293.586.195.152.65.365 1.365.638.535.2.93.385 1.183.557.258.172.448.365.569.58.121.215.181.473.181.774zm3.715 1.031c.137 0 .297-.014.481-.041.183-.027.322-.059.416-.094v.809c-.098.043-.25.084-.457.123-.203.043-.41.064-.621.064-1.258 0-1.887-.662-1.887-1.986v-3.744h-.908v-.504l.92-.422.422-1.371h.626v1.476h1.858v.821h-1.858v3.715c0 .371.088.656.264.855.18.199.428.299.744.299zm-32.174 16.066c0 .621-.224 1.121-.673 1.5-.45.375-1.078.6-1.887.674v1.201h-.803v-1.177c-.953-.02-1.789-.188-2.508-.504v-1.547c.34.168.748.316 1.225.445.48.129.908.205 1.283.229v-1.817l-.392-.152c-.774-.305-1.323-.635-1.647-.99-.32-.36-.48-.803-.48-1.33 0-.567.22-1.032.662-1.395.445-.367 1.064-.59 1.857-.668v-.896h.803v.873c.894.039 1.703.218 2.426.539l-.551 1.371a6.313 6.313 0 00-1.875-.457v1.728c.762.293 1.303.547 1.623.762.324.215.56.451.709.709.152.258.228.559.228.902zm-1.763.088a.526.526 0 00-.2-.416 2.62 2.62 0 00-.597-.351v1.459c.531-.09.797-.321.797-.692zm-2.356-3.556a.57.57 0 00.176.427c.121.11.314.223.58.34v-1.377c-.504.074-.756.277-.756.61zM88.871 154h-2.074l-1.992-3.24-1.993 3.24h-1.945l2.842-4.418-2.66-4.148h2.004l1.845 3.082 1.811-3.082h1.957l-2.69 4.248L88.872 154zM438.064 136h-1.078v-3.996h-4.394V136h-1.078v-8.566h1.078v3.621h4.394v-3.621h1.078V136zm3.252 0h-1.054v-6.434h1.054V136zm-1.136-8.174c0-.234.058-.404.175-.51a.66.66 0 01.446-.158c.164 0 .306.053.428.158.125.106.187.276.187.51 0 .231-.062.401-.187.51a.621.621 0 01-.428.164.645.645 0 01-.446-.164c-.117-.109-.175-.279-.175-.51zm5.625 7.43c.648 0 1.119-.174 1.412-.522.297-.351.445-.914.445-1.687v-.252c0-.859-.148-1.484-.445-1.875-.297-.391-.776-.586-1.436-.586-.539 0-.957.215-1.254.645-.293.425-.439 1.035-.439 1.828 0 .797.142 1.404.428 1.822.289.418.718.627 1.289.627zm1.845.685l.036-.791h-.047c-.434.645-1.098.967-1.993.967-.832 0-1.482-.289-1.951-.867-.465-.582-.697-1.4-.697-2.455 0-1.035.234-1.852.703-2.449.473-.598 1.117-.897 1.934-.897.871 0 1.543.324 2.015.973h.065l.14-.856h.838v6.539c0 .922-.234 1.616-.703 2.081-.465.464-1.189.697-2.174.697-.937 0-1.709-.137-2.314-.41v-.973c.625.336 1.416.504 2.373.504.547 0 .979-.16 1.295-.481.32-.32.48-.763.48-1.33v-.252zm7.471.059v-4.113c0-.524-.117-.912-.351-1.166-.231-.258-.594-.387-1.09-.387-.653 0-1.131.182-1.436.545-.301.363-.451.963-.451 1.799V136h-1.055v-9.117h1.055v2.672c0 .351-.02.652-.059.902h.071c.191-.312.463-.557.814-.732a2.622 2.622 0 011.19-.264c.781 0 1.369.187 1.763.562.395.372.592.967.592 1.788V136h-1.043zm5.772.117c-.965 0-1.723-.291-2.274-.873-.547-.586-.82-1.39-.82-2.414 0-1.031.256-1.851.767-2.461.512-.613 1.204-.92 2.075-.92.808 0 1.453.262 1.933.785.481.52.721 1.225.721 2.116v.638h-4.406c.019.731.205 1.285.556 1.664.352.379.85.569 1.494.569.344 0 .67-.03.979-.088a5.81 5.81 0 001.084-.358v.926c-.356.153-.69.26-1.002.322a5.672 5.672 0 01-1.107.094zm-.264-5.806c-.504 0-.902.162-1.195.486-.293.324-.467.775-.522 1.353h3.276c-.008-.601-.147-1.058-.417-1.371-.269-.312-.65-.468-1.142-.468zm8.49 3.914c0 .601-.224 1.068-.674 1.4-.449.328-1.08.492-1.892.492-.848 0-1.522-.135-2.022-.404v-.961c.707.344 1.389.516 2.045.516.531 0 .918-.086 1.16-.258a.807.807 0 00.364-.692c0-.254-.118-.468-.352-.644-.23-.176-.643-.377-1.236-.604-.606-.234-1.032-.433-1.278-.597a1.735 1.735 0 01-.545-.563 1.559 1.559 0 01-.169-.756c0-.527.214-.943.644-1.248.43-.304 1.02-.457 1.77-.457a4.9 4.9 0 012.05.434l-.357.838c-.652-.274-1.24-.41-1.764-.41-.437 0-.769.07-.996.21-.226.137-.34.327-.34.569 0 .234.098.43.293.586.196.152.651.365 1.366.638.535.2.929.385 1.183.557.258.172.447.365.569.58.121.215.181.473.181.774zm3.715 1.031c.137 0 .297-.014.48-.041a2.13 2.13 0 00.416-.094v.809c-.097.043-.25.084-.457.123-.203.043-.41.064-.621.064-1.257 0-1.886-.662-1.886-1.986v-3.744h-.909v-.504l.92-.422.422-1.371h.627v1.476h1.858v.821h-1.858v3.715c0 .371.088.656.264.855.18.199.428.299.744.299zm-23.314 16.066c0 .621-.225 1.121-.674 1.5-.45.375-1.078.6-1.887.674v1.201h-.803v-1.177c-.953-.02-1.789-.188-2.508-.504v-1.547c.34.168.748.316 1.225.445.481.129.908.205 1.283.229v-1.817l-.392-.152c-.774-.305-1.323-.635-1.647-.99-.32-.36-.48-.803-.48-1.33 0-.567.22-1.032.662-1.395.445-.367 1.064-.59 1.857-.668v-.896h.803v.873c.895.039 1.703.218 2.426.539l-.551 1.371a6.307 6.307 0 00-1.875-.457v1.728c.762.293 1.303.547 1.623.762.324.215.561.451.709.709.152.258.229.559.229.902zm-1.764.088a.529.529 0 00-.199-.416 2.62 2.62 0 00-.598-.351v1.459c.531-.09.797-.321.797-.692zm-2.356-3.556a.57.57 0 00.176.427c.121.11.315.223.58.34v-1.377c-.504.074-.756.277-.756.61zM457.992 154h-2.074l-1.992-3.24-1.992 3.24h-1.946l2.842-4.418-2.66-4.148h2.004l1.846 3.082 1.81-3.082h1.957l-2.689 4.248 2.894 4.318zm8.004 0h-2.074l-1.992-3.24-1.992 3.24h-1.946l2.842-4.418-2.66-4.148h2.004l1.845 3.082 1.811-3.082h1.957l-2.689 4.248 2.894 4.318zm8.004 0h-2.074l-1.992-3.24-1.993 3.24h-1.945l2.842-4.418-2.66-4.148h2.004l1.845 3.082 1.811-3.082h1.957l-2.69 4.248L474 154z" fill="#424242"/><mask id="a" fill="#fff"><path fill-rule="evenodd" clip-rule="evenodd" d="M276.135 128.998l4.446-4.414a2.015 2.015 0 012.838 0l4.446 4.414H332a8 8 0 018 8v43a8 8 0 01-8 8H232a8 8 0 01-8-8v-43a8 8 0 018-8h44.135z"/></mask><path d="M276.135 128.998v1h.412l.293-.29-.705-.71zm4.446-4.414l-.705-.71.705.71zm2.838 0l.705-.71-.705.71zm4.446 4.414l-.705.71.293.29h.412v-1zm-11.025.71l4.445-4.415-1.409-1.419-4.445 4.415 1.409 1.419zm4.445-4.415a1.018 1.018 0 011.43 0l1.409-1.419a3.018 3.018 0 00-4.248 0l1.409 1.419zm1.43 0l4.445 4.415 1.409-1.419-4.445-4.415-1.409 1.419zm5.15 4.705H332v-2h-44.135v2zm44.135 0a7 7 0 017 7h2a9 9 0 00-9-9v2zm7 7v43h2v-43h-2zm0 43a7 7 0 01-7 7v2a9 9 0 009-9h-2zm-7 7H232v2h100v-2zm-100 0a7 7 0 01-7-7h-2a9 9 0 009 9v-2zm-7-7v-43h-2v43h2zm0-43a7 7 0 017-7v-2a9 9 0 00-9 9h2zm7-7h44.135v-2H232v2z" fill="#E4E2E0" mask="url(#a)"/><path d="M243.465 168.874c0 .725-.262 1.308-.786 1.75-.524.438-1.258.7-2.201.786v1.402h-.937v-1.374c-1.112-.023-2.087-.219-2.926-.588v-1.805c.397.196.873.369 1.429.519.56.151 1.06.24 1.497.267v-2.119l-.458-.178c-.902-.355-1.543-.74-1.921-1.155-.374-.419-.56-.937-.56-1.552 0-.661.257-1.203.772-1.627.52-.428 1.242-.688 2.167-.779v-1.046h.937v1.019c1.043.045 1.987.255 2.83.628l-.643 1.6a7.385 7.385 0 00-2.187-.533v2.016c.888.342 1.519.638 1.893.889.378.251.654.527.827.827.178.301.267.652.267 1.053zm-2.058.103a.614.614 0 00-.232-.486c-.155-.132-.388-.269-.697-.41v1.702c.619-.105.929-.373.929-.806zm-2.748-4.15c0 .201.069.367.205.499.142.128.367.26.677.397v-1.607c-.588.087-.882.324-.882.711zm14.691 7.171h-2.42l-2.325-3.78-2.324 3.78h-2.269l3.315-5.154-3.103-4.84h2.338l2.153 3.596 2.112-3.596h2.283l-3.137 4.956 3.377 5.038zm9.338 0h-2.42l-2.325-3.78-2.324 3.78h-2.269l3.315-5.154-3.103-4.84h2.337l2.154 3.596 2.112-3.596h2.283l-3.137 4.956 3.377 5.038zM242.539 151.998l-1.031-2.654h-3.399l-1.019 2.654H236l3.346-8.602h.972l3.34 8.602h-1.119zm-1.353-3.609l-.961-2.596-.411-1.283c-.117.469-.24.896-.369 1.283l-.972 2.596h2.713zm4.927 3.609l-2.437-6.434h1.131l1.365 3.791c.269.762.441 1.331.516 1.706h.046l.041-.17a127.912 127.912 0 01.498-1.536l1.372-3.791h1.125l-2.444 6.434h-1.213zm7.412.117c-.964 0-1.722-.291-2.273-.873-.547-.586-.82-1.39-.82-2.414 0-1.031.256-1.851.767-2.461.512-.613 1.203-.92 2.074-.92.809 0 1.454.262 1.934.785.481.52.721 1.225.721 2.116v.638h-4.407c.02.731.206 1.285.557 1.664.352.379.85.569 1.494.569.344 0 .67-.03.979-.088.308-.063.67-.182 1.084-.358v.926c-.356.153-.69.26-1.002.322a5.683 5.683 0 01-1.108.094zm-.263-5.806c-.504 0-.903.162-1.196.486-.293.324-.466.775-.521 1.353h3.275c-.008-.601-.146-1.058-.416-1.371-.269-.312-.65-.468-1.142-.468zm7.3-.862c.286 0 .538.024.756.071l-.129.972a3.145 3.145 0 00-.697-.082c-.34 0-.656.094-.949.281a1.925 1.925 0 00-.68.78 2.414 2.414 0 00-.246 1.095v3.434h-1.055v-6.434h.868l.117 1.178h.047c.246-.426.537-.748.873-.967a1.974 1.974 0 011.095-.328zm5.813 6.551l-.205-.914h-.047c-.32.402-.641.676-.961.82-.316.141-.717.211-1.201.211-.633 0-1.129-.166-1.488-.498-.36-.332-.539-.801-.539-1.406 0-1.305 1.029-1.988 3.087-2.051l1.09-.041v-.381c0-.488-.105-.847-.316-1.078-.211-.234-.549-.351-1.014-.351-.34 0-.662.05-.967.152-.3.101-.584.215-.849.34l-.322-.791a4.774 4.774 0 011.06-.405 4.619 4.619 0 011.137-.146c.777 0 1.355.172 1.734.516.379.343.569.89.569 1.64v4.383h-.768zm-2.174-.732c.59 0 1.053-.159 1.389-.475.34-.32.51-.773.51-1.359v-.58l-.95.041c-.738.027-1.277.144-1.617.351-.336.207-.504.533-.504.979 0 .336.102.593.305.773.207.18.496.27.867.27zm7.389-.012c.648 0 1.119-.174 1.412-.522.297-.351.445-.914.445-1.687v-.252c0-.859-.148-1.484-.445-1.875-.297-.391-.775-.586-1.436-.586-.539 0-.957.215-1.254.645-.292.425-.439 1.035-.439 1.828 0 .797.143 1.404.428 1.822.289.418.719.627 1.289.627zm1.846.685l.035-.791h-.047c-.434.645-1.098.967-1.992.967-.832 0-1.483-.289-1.952-.867-.464-.582-.697-1.4-.697-2.455 0-1.035.235-1.852.703-2.449.473-.598 1.118-.897 1.934-.897.871 0 1.543.324 2.016.973h.064l.141-.856h.838v6.54c0 .921-.235 1.615-.704 2.08-.464.464-1.189.697-2.173.697-.938 0-1.709-.137-2.315-.41v-.973c.625.336 1.416.504 2.373.504.547 0 .979-.16 1.295-.481.32-.32.481-.763.481-1.33v-.252zm5.824.176c-.965 0-1.723-.291-2.274-.873-.547-.586-.82-1.39-.82-2.414 0-1.031.256-1.851.768-2.461.511-.613 1.203-.92 2.074-.92.808 0 1.453.262 1.933.785.481.52.721 1.225.721 2.116v.638h-4.406c.019.731.205 1.285.556 1.664.352.379.85.569 1.495.569.343 0 .67-.03.978-.088a5.81 5.81 0 001.084-.358v.926c-.355.153-.689.26-1.002.322a5.665 5.665 0 01-1.107.094zm-.264-5.806c-.504 0-.902.162-1.195.486-.293.324-.467.775-.522 1.353h3.276c-.008-.601-.147-1.058-.416-1.371-.27-.312-.651-.468-1.143-.468zm11.608 3.914c0 .601-.225 1.068-.674 1.4-.45.328-1.08.492-1.893.492-.848 0-1.521-.135-2.021-.404v-.961c.707.344 1.388.516 2.045.516.531 0 .918-.086 1.16-.258a.808.808 0 00.363-.692c0-.254-.117-.468-.352-.644-.23-.176-.642-.377-1.236-.604-.605-.234-1.031-.433-1.277-.597a1.725 1.725 0 01-.545-.563 1.558 1.558 0 01-.17-.756c0-.527.215-.943.644-1.248.43-.304 1.02-.457 1.77-.457.73 0 1.414.145 2.051.434l-.358.838c-.652-.274-1.24-.41-1.763-.41-.438 0-.77.07-.996.211-.227.136-.34.326-.34.568 0 .234.097.43.293.586.195.152.65.365 1.365.638.535.2.93.385 1.184.557.257.172.447.365.568.58.121.215.182.473.182.774zm5.537 1.775l-.205-.914h-.047c-.321.402-.641.676-.961.82-.317.141-.717.211-1.201.211-.633 0-1.129-.166-1.489-.498-.359-.332-.539-.801-.539-1.406 0-1.305 1.03-1.988 3.088-2.051l1.09-.041v-.381c0-.488-.106-.847-.316-1.078-.211-.234-.549-.351-1.014-.351-.34 0-.662.05-.967.152a7.922 7.922 0 00-.85.34l-.322-.791a4.783 4.783 0 011.061-.405 4.61 4.61 0 011.136-.146c.778 0 1.356.172 1.735.516.379.343.568.89.568 1.64v4.383h-.767zm-2.174-.732c.59 0 1.053-.159 1.388-.475.34-.32.51-.773.51-1.359v-.58l-.949.041c-.738.027-1.277.144-1.617.351-.336.207-.504.533-.504.979 0 .336.101.593.305.773.207.18.496.27.867.27zm5.994.732h-1.055v-9.117h1.055v9.117zm6.012 0l-.205-.914h-.047c-.321.402-.641.676-.961.82-.317.141-.717.211-1.201.211-.633 0-1.129-.166-1.489-.498-.359-.332-.539-.801-.539-1.406 0-1.305 1.03-1.988 3.088-2.051l1.09-.041v-.381c0-.488-.105-.847-.316-1.078-.211-.234-.549-.351-1.014-.351-.34 0-.662.05-.967.152a7.922 7.922 0 00-.85.34l-.322-.791a4.783 4.783 0 011.061-.405 4.613 4.613 0 011.137-.146c.777 0 1.355.172 1.734.516.379.343.568.89.568 1.64v4.383h-.767zm-2.174-.732c.59 0 1.053-.159 1.389-.475.339-.32.509-.773.509-1.359v-.58l-.949.041c-.738.027-1.277.144-1.617.351-.336.207-.504.533-.504.979 0 .336.102.593.305.773.207.18.496.27.867.27zm7.939-5.819c.285 0 .537.024.756.071l-.129.972a3.145 3.145 0 00-.697-.082c-.34 0-.656.094-.949.281a1.925 1.925 0 00-.68.78 2.414 2.414 0 00-.246 1.095v3.434h-1.055v-6.434h.867l.118 1.178h.047c.246-.426.537-.748.873-.967a1.974 1.974 0 011.095-.328zm.95.117h1.13l1.389 3.663c.293.796.473 1.38.539 1.752h.047c.035-.145.115-.415.24-.809.125-.399.231-.717.317-.955l1.306-3.651h1.137l-2.772 7.325c-.269.711-.589 1.22-.96 1.529-.372.309-.831.463-1.377.463-.293 0-.584-.033-.873-.1v-.838c.195.047.429.071.703.071.336 0 .621-.094.855-.282.235-.183.426-.468.574-.855l.334-.856-2.589-6.457zM271.066 171.115c-.863 0-1.527-.31-1.992-.931h-.07l.023.24c.032.305.047.576.047.814v2.643h-1.054v-9.317h.867l.14.879h.047c.25-.351.539-.605.867-.761a2.607 2.607 0 011.137-.235c.836 0 1.484.291 1.945.873.465.578.698 1.395.698 2.45 0 1.05-.233 1.871-.698 2.46-.464.59-1.117.885-1.957.885zm-.175-5.783c-.637 0-1.098.18-1.383.539-.281.359-.426.924-.434 1.693v.206c0 .871.145 1.501.434 1.892.289.387.758.58 1.406.58.539 0 .959-.219 1.26-.656.305-.438.457-1.047.457-1.828 0-.785-.152-1.385-.457-1.799-.301-.418-.729-.627-1.283-.627zm7.248 5.783c-.965 0-1.723-.291-2.274-.873-.547-.586-.82-1.39-.82-2.414 0-1.031.256-1.851.767-2.461.512-.613 1.204-.92 2.075-.92.808 0 1.453.262 1.933.785.481.52.721 1.225.721 2.116v.638h-4.406c.019.731.205 1.285.556 1.664.352.379.85.569 1.495.569.343 0 .669-.03.978-.088a5.81 5.81 0 001.084-.358v.926c-.355.153-.689.26-1.002.322a5.672 5.672 0 01-1.107.094zm-.264-5.806c-.504 0-.902.162-1.195.486-.293.324-.467.775-.522 1.353h3.276c-.008-.601-.147-1.058-.416-1.371-.27-.312-.651-.468-1.143-.468zm7.301-.862c.285 0 .537.024.756.071l-.129.972a3.16 3.16 0 00-.698-.082c-.339 0-.656.094-.949.281a1.923 1.923 0 00-.679.78 2.402 2.402 0 00-.247 1.095v3.434h-1.054v-6.434h.867l.117 1.178h.047c.246-.426.537-.748.873-.967a1.975 1.975 0 011.096-.328zm13.26 6.551v-4.143c0-1.015-.436-1.523-1.307-1.523-.598 0-1.037.174-1.318.522-.282.347-.422.878-.422 1.593v3.551h-1.049v-4.143c0-.507-.108-.888-.322-1.142-.211-.254-.543-.381-.997-.381-.593 0-1.029.182-1.306.545-.274.363-.41.959-.41 1.787v3.334h-1.055v-6.434h.85l.158.879h.058c.184-.312.442-.556.774-.732a2.387 2.387 0 011.125-.264c1.008 0 1.664.36 1.969 1.078h.058a2.12 2.12 0 01.844-.796 2.59 2.59 0 011.219-.282c.726 0 1.269.188 1.629.563.363.375.545.974.545 1.799v4.189h-1.043zm8.63-3.228c0 1.05-.265 1.871-.796 2.46-.532.59-1.266.885-2.204.885-.582 0-1.097-.135-1.546-.404a2.686 2.686 0 01-1.038-1.172c-.242-.508-.363-1.098-.363-1.769 0-1.047.262-1.862.785-2.444.524-.586 1.258-.879 2.203-.879.907 0 1.625.299 2.157.897.535.594.802 1.402.802 2.426zm-4.857 0c0 .808.158 1.423.475 1.845.32.418.791.627 1.412.627.613 0 1.08-.209 1.4-.627.32-.422.481-1.037.481-1.845 0-.809-.163-1.416-.487-1.823-.32-.41-.791-.615-1.412-.615-1.246 0-1.869.813-1.869 2.438zm10.916 3.228v-4.113c0-.524-.117-.912-.352-1.166-.23-.258-.593-.387-1.089-.387-.661 0-1.141.184-1.442.551-.297.363-.445.957-.445 1.781v3.334h-1.055v-6.434h.85l.158.879h.059c.199-.316.478-.56.837-.732a2.67 2.67 0 011.19-.264c.789 0 1.375.192 1.758.574.383.383.574.979.574 1.788v4.189h-1.043zm5.186-.744c.136 0 .296-.014.48-.041.184-.027.322-.059.416-.094v.809c-.098.043-.25.084-.457.123-.203.043-.41.064-.621.064-1.258 0-1.887-.662-1.887-1.986v-3.744h-.908v-.504l.92-.422.422-1.371h.627v1.476h1.857v.821h-1.857v3.715c0 .371.088.656.263.855.18.199.428.299.745.299zm6.568.744v-4.113c0-.524-.117-.912-.352-1.166-.23-.258-.593-.387-1.089-.387-.653 0-1.131.182-1.436.545-.301.363-.451.963-.451 1.799v3.322h-1.055v-9.117h1.055v2.672c0 .351-.02.652-.059.902h.07c.192-.312.463-.557.815-.732a2.621 2.621 0 011.189-.264c.782 0 1.37.187 1.764.562.395.372.592.967.592 1.788v4.189h-1.043z" fill="#2D2D2D"/><rect x="355" y="50" width="47" height="32" rx="4" fill="#595959"/><rect width="9.987" height="9.987" rx="2" transform="rotate(44.927 99.642 494.052)" fill="#595959"/><path d="M367.992 65.281l2.383-4.703h2.609l-3.789 6.977V72h-2.406v-4.367L363 60.578h2.625l2.367 4.703zm7.75 2.336c0 .865.141 1.518.422 1.961.287.443.75.664 1.391.664.635 0 1.091-.219 1.367-.656.281-.443.422-1.099.422-1.969 0-.864-.141-1.513-.422-1.945-.281-.432-.742-.649-1.383-.649-.635 0-1.094.217-1.375.649-.281.427-.422 1.075-.422 1.945zm6.039 0c0 1.422-.375 2.534-1.125 3.336s-1.794 1.203-3.133 1.203c-.838 0-1.578-.182-2.218-.547a3.69 3.69 0 01-1.477-1.586c-.344-.687-.516-1.49-.516-2.406 0-1.427.373-2.536 1.118-3.328.744-.792 1.791-1.187 3.14-1.187.839 0 1.578.182 2.219.546a3.65 3.65 0 011.477 1.57c.343.683.515 1.483.515 2.4zM389.938 72l-.321-1.117h-.125a2.536 2.536 0 01-1.086.945c-.468.219-1.002.328-1.601.328-1.026 0-1.8-.273-2.321-.82-.52-.552-.781-1.344-.781-2.375v-5.695h2.383v5.101c0 .63.112 1.104.336 1.422.224.313.581.469 1.07.469.667 0 1.149-.221 1.446-.664.296-.448.445-1.188.445-2.219v-4.11h2.383V72h-1.828z" fill="#fff"/><g filter="url(#filter0_d)"><circle cx="377" cy="106" r="8" fill="#fff"/></g><circle cx="377" cy="106" r="4" fill="#237EA3"/><circle cx="84" cy="106" r="2" fill="#fff"/><circle cx="282" cy="106" r="2" fill="#fff"/><circle cx="464" cy="106" r="2" fill="#fff"/><path fill-rule="evenodd" clip-rule="evenodd" d="M33.52 165.474L21.992 177l-11.525-11.526 11.526-11.526 11.525 11.526z" fill="#B74E85"/><path clip-rule="evenodd" d="M33.52 165.474L21.992 177l-11.525-11.526 11.526-11.526 11.525 11.526z" stroke="#2D2D2D" stroke-width="1.72"/><path fill-rule="evenodd" clip-rule="evenodd" d="M36.996 165.816H6.99A5.992 5.992 0 011 159.824v-14.142a5.99 5.99 0 015.991-5.991h30.005a5.991 5.991 0 015.99 5.991v14.142a5.992 5.992 0 01-5.99 5.992z" fill="#B74E85"/><path d="M1.845 158.133v-14.142A5.99 5.99 0 017.837 138H37.84a5.991 5.991 0 015.991 5.991" stroke="#2D2D2D" stroke-width="1.72"/><path fill-rule="evenodd" clip-rule="evenodd" d="M15.771 158.581c.259-.086.49-.209.696-.368.205-.158.374-.354.506-.586.132-.231.199-.506.199-.824 0-.517-.162-.904-.487-1.163-.325-.258-.877-.493-1.659-.705v3.815c.239-.026.487-.082.745-.169zm-2.573-9.944a1.723 1.723 0 00-.576.308 1.487 1.487 0 00-.407.516 1.65 1.65 0 00-.15.725c0 .438.14.775.418 1.014.278.238.735.43 1.37.576v-3.239a2.16 2.16 0 00-.655.1zm-.874 9.278c.41.438.92.716 1.53.835v-4.153a4.548 4.548 0 00-.636-.179c-.49-.132-.974-.288-1.45-.466a4.74 4.74 0 01-1.282-.716 3.304 3.304 0 01-.904-1.112c-.225-.444-.338-.997-.338-1.659 0-.676.13-1.272.388-1.789.258-.516.599-.95 1.023-1.301a4.69 4.69 0 011.47-.815 6.635 6.635 0 011.729-.347v-1.53h1.172v1.53a7.14 7.14 0 011.679.387c.523.192.984.457 1.38.795.398.338.723.758.975 1.261.251.504.397 1.1.437 1.789h-2.822c-.013-.53-.178-.98-.497-1.351-.317-.371-.702-.557-1.152-.557v3.517c.16.04.321.08.487.119.165.04.34.087.527.139.98.266 1.735.593 2.265.984s.92.798 1.172 1.222c.251.424.4.848.447 1.271.046.424.07.802.07 1.133 0 .291-.074.659-.22 1.103-.145.444-.406.878-.784 1.301-.378.424-.884.802-1.52 1.133-.636.331-1.45.529-2.444.596v1.689h-1.172v-1.689c-1.484-.106-2.643-.563-3.477-1.371-.835-.808-1.318-1.994-1.45-3.557h2.8c-.013.755.186 1.351.597 1.788zM30.47 158.581c.258-.086.49-.209.695-.368.205-.158.374-.354.506-.586.132-.231.199-.506.199-.824 0-.517-.162-.904-.487-1.163-.324-.258-.877-.493-1.659-.705v3.815c.239-.026.487-.082.745-.169zm-2.574-9.944a1.723 1.723 0 00-.576.308 1.486 1.486 0 00-.407.516 1.65 1.65 0 00-.15.725c0 .438.14.775.418 1.014.278.238.735.43 1.37.576v-3.239a2.16 2.16 0 00-.655.1zm-.874 9.278c.41.438.92.716 1.53.835v-4.153a4.548 4.548 0 00-.636-.179c-.49-.132-.974-.288-1.45-.466a4.74 4.74 0 01-1.282-.716 3.305 3.305 0 01-.904-1.112c-.225-.444-.338-.997-.338-1.659 0-.676.13-1.272.388-1.789.258-.516.599-.95 1.023-1.301a4.69 4.69 0 011.47-.815 6.635 6.635 0 011.729-.347v-1.53h1.172v1.53a7.14 7.14 0 011.679.387c.523.192.983.457 1.38.795.398.338.723.758.975 1.261.251.504.397 1.1.437 1.789h-2.822c-.013-.53-.178-.98-.497-1.351-.317-.371-.702-.557-1.152-.557v3.517c.16.04.321.08.487.119.165.04.34.087.527.139.98.266 1.735.593 2.264.984.53.391.921.798 1.173 1.222.251.424.4.848.447 1.271.046.424.07.802.07 1.133 0 .291-.074.659-.22 1.103-.145.444-.406.878-.784 1.301-.378.424-.884.802-1.52 1.133-.636.331-1.45.529-2.444.596v1.689h-1.172v-1.689c-1.484-.106-2.643-.563-3.477-1.371-.835-.808-1.318-1.994-1.45-3.557h2.8c-.012.755.186 1.351.597 1.788z" fill="#fff"/><path fill-rule="evenodd" clip-rule="evenodd" d="M68.78 42.344L57.556 53.568 46.332 42.344l11.224-11.225L68.78 42.344z" fill="#5597F1"/><path fill-rule="evenodd" clip-rule="evenodd" d="M72.165 42.676H42.946a5.834 5.834 0 01-5.834-5.834V23.07a5.835 5.835 0 015.834-5.835h29.22A5.835 5.835 0 0178 23.07v13.772a5.835 5.835 0 01-5.835 5.834z" fill="#5597F1"/><path d="M66.336 41.441L55.444 52.333 44.552 41.441h-3.718A5.834 5.834 0 0135 35.607V21.835A5.835 5.835 0 0140.834 16" stroke="#2D2D2D" stroke-width="2.109"/><path fill-rule="evenodd" clip-rule="evenodd" d="M58.812 35.631c.252-.084.478-.203.678-.358.2-.155.364-.345.493-.57.129-.226.194-.494.194-.804 0-.503-.158-.88-.474-1.132-.317-.251-.855-.48-1.616-.687v3.715c.232-.025.474-.08.725-.164zm-2.505-9.684a1.683 1.683 0 00-.561.3c-.168.135-.3.303-.397.503-.097.2-.145.435-.145.706 0 .426.135.755.406.987.271.232.716.419 1.335.56V25.85c-.22 0-.432.032-.638.097zm-.852 9.036c.4.425.897.696 1.49.812v-4.044a3.167 3.167 0 00-.26-.087 4.451 4.451 0 00-.359-.087c-.477-.128-.948-.28-1.412-.454a4.608 4.608 0 01-1.248-.697 3.211 3.211 0 01-.88-1.083c-.22-.432-.33-.971-.33-1.616 0-.658.126-1.239.378-1.742a3.87 3.87 0 01.996-1.267 4.56 4.56 0 011.432-.793 6.463 6.463 0 011.683-.339v-1.49h1.142v1.49c.58.065 1.125.19 1.635.377.51.188.958.445 1.345.774.387.33.703.74.948 1.229.245.49.387 1.071.425 1.741h-2.747c-.013-.515-.174-.954-.484-1.315s-.684-.542-1.122-.542v3.425l.474.116c.161.039.332.084.513.135.954.259 1.69.578 2.206.958.515.38.896.777 1.141 1.19.245.413.39.826.435 1.238.046.413.068.781.068 1.103 0 .284-.07.642-.213 1.074-.142.433-.396.855-.764 1.268-.367.413-.86.78-1.48 1.102-.62.323-1.413.516-2.38.58v1.646h-1.142V38.04c-1.444-.103-2.573-.548-3.386-1.335-.812-.787-1.283-1.941-1.412-3.464h2.728c-.013.736.18 1.316.58 1.742z" fill="#fff"/><path fill-rule="evenodd" clip-rule="evenodd" d="M486.454 4.138h-33.721A6.733 6.733 0 00446 10.872v15.893a6.733 6.733 0 006.733 6.734h4.291l12.57 12.57 12.57-12.57h4.29a6.734 6.734 0 006.734-6.734V10.872a6.734 6.734 0 00-6.734-6.734z" fill="#F60"/><path d="M455.545 2h33.721A6.734 6.734 0 01496 8.734v15.893" stroke="#2D2D2D" stroke-width="2.094"/><path fill-rule="evenodd" clip-rule="evenodd" d="M457.853 24.305c.259-.086.491-.209.697-.368a1.99 1.99 0 00.509-.588c.132-.233.199-.509.199-.827 0-.519-.163-.907-.489-1.166-.325-.26-.88-.495-1.664-.708v3.827c.239-.027.489-.083.748-.17zm-2.582-9.975c-.212.066-.405.169-.578.309-.172.14-.309.312-.409.518a1.664 1.664 0 00-.149.727c0 .439.139.778.419 1.017.279.239.737.432 1.375.578V14.23a2.2 2.2 0 00-.658.1zm-.877 9.308c.412.438.924.717 1.535.837V20.31a3.097 3.097 0 00-.269-.09 4.508 4.508 0 00-.369-.09 15.935 15.935 0 01-1.454-.468 4.735 4.735 0 01-1.286-.717c-.379-.3-.681-.671-.907-1.116-.226-.445-.339-1-.339-1.665 0-.677.129-1.276.389-1.794a3.986 3.986 0 011.026-1.305 4.695 4.695 0 011.475-.817 6.647 6.647 0 011.734-.35v-1.534h1.176v1.535a7.182 7.182 0 011.684.389c.525.192.987.458 1.386.797.398.338.724.76.977 1.266.252.505.398 1.103.438 1.793h-2.831c-.013-.53-.179-.983-.498-1.355s-.704-.558-1.156-.558v3.528l.488.12c.166.04.343.086.529.139.983.266 1.74.595 2.272.987.531.392.923.8 1.176 1.226.252.425.402.85.448 1.275.047.425.07.804.07 1.136 0 .293-.073.662-.219 1.107-.146.445-.408.88-.787 1.305-.379.426-.887.804-1.525 1.136-.638.332-1.455.532-2.452.598v1.695h-1.176v-1.695c-1.488-.106-2.651-.564-3.488-1.375-.837-.81-1.322-2-1.455-3.568h2.81c-.013.758.186 1.355.598 1.794zM471.537 24.305a2.35 2.35 0 00.698-.368c.206-.16.375-.356.508-.588.133-.233.199-.509.199-.827 0-.519-.163-.907-.488-1.166-.326-.26-.881-.495-1.664-.708v3.827c.239-.027.488-.083.747-.17zm-2.581-9.975c-.213.066-.406.169-.578.309-.173.14-.309.312-.409.518a1.65 1.65 0 00-.149.727c0 .439.139.778.418 1.017.279.239.738.432 1.375.578V14.23c-.226 0-.445.033-.657.1zm-.877 9.308c.412.438.923.717 1.535.837V20.31a3.35 3.35 0 00-.269-.09 4.61 4.61 0 00-.369-.09 15.954 15.954 0 01-1.455-.468 4.75 4.75 0 01-1.286-.717c-.378-.3-.681-.671-.907-1.116-.226-.445-.339-1-.339-1.665 0-.677.13-1.276.389-1.794a3.976 3.976 0 011.027-1.305 4.695 4.695 0 011.475-.817 6.647 6.647 0 011.734-.35v-1.534h1.176v1.535a7.182 7.182 0 011.684.389c.524.192.987.458 1.385.797.399.338.724.76.977 1.266.252.505.399 1.103.438 1.793h-2.83c-.013-.53-.179-.983-.498-1.355s-.705-.558-1.156-.558v3.528l.488.12c.166.04.342.086.528.139.983.266 1.741.595 2.272.987.532.392.924.8 1.176 1.226.253.425.402.85.449 1.275.046.425.07.804.07 1.136 0 .293-.074.662-.22 1.107-.146.445-.408.88-.787 1.305-.379.426-.887.804-1.525 1.136-.638.332-1.455.532-2.451.598v1.695h-1.176v-1.695c-1.489-.106-2.651-.564-3.488-1.375-.838-.81-1.323-2-1.455-3.568h2.81c-.014.758.186 1.355.598 1.794zM485.237 24.305c.259-.086.491-.209.697-.368.206-.16.376-.356.509-.588.132-.233.199-.509.199-.827 0-.519-.163-.907-.489-1.166-.325-.26-.88-.495-1.664-.708v3.827c.239-.027.489-.083.748-.17zm-2.581-9.975c-.213.066-.406.169-.578.309-.173.14-.309.312-.409.518-.1.206-.15.448-.15.727 0 .439.14.778.419 1.017.279.239.738.432 1.375.578V14.23c-.226 0-.445.033-.657.1zm-.878 9.308c.412.438.924.717 1.535.837V20.31a3.219 3.219 0 00-.269-.09 4.508 4.508 0 00-.369-.09 16.055 16.055 0 01-1.455-.468 4.744 4.744 0 01-1.285-.717c-.379-.3-.682-.671-.907-1.116-.226-.445-.339-1-.339-1.665 0-.677.129-1.276.389-1.794a3.973 3.973 0 011.026-1.305 4.695 4.695 0 011.475-.817 6.647 6.647 0 011.734-.35v-1.534h1.176v1.535a7.182 7.182 0 011.684.389c.525.192.987.458 1.386.797.398.338.724.76.976 1.266.253.505.399 1.103.439 1.793h-2.831c-.013-.53-.179-.983-.498-1.355s-.704-.558-1.156-.558v3.528l.489.12c.165.04.341.086.528.139.983.266 1.74.595 2.272.987.532.392.923.8 1.176 1.226.252.425.402.85.449 1.275.046.425.069.804.069 1.136 0 .293-.073.662-.219 1.107-.146.445-.409.88-.787 1.305-.379.426-.887.804-1.525 1.136-.638.332-1.455.532-2.452.598v1.695h-1.176v-1.695c-1.488-.106-2.651-.564-3.488-1.375-.837-.81-1.322-2-1.455-3.568h2.81c-.013.758.186 1.355.598 1.794z" fill="#fff"/><defs><filter id="filter0_d" x="367" y="97" width="20" height="20" filterUnits="userSpaceOnUse" color-interpolation-filters="sRGB"><feFlood flood-opacity="0" result="BackgroundImageFix"/><feColorMatrix in="SourceAlpha" values="0 0 0 0 0 0 0 0 0 0 0 0 0 0 0 0 0 0 127 0"/><feOffset dy="1"/><feGaussianBlur stdDeviation="1"/><feColorMatrix values="0 0 0 0 0 0 0 0 0 0 0 0 0 0 0 0 0 0 0.15 0"/><feBlend in2="BackgroundImageFix" result="effect1_dropShadow"/><feBlend in="SourceGraphic" in2="effect1_dropShadow" result="shape"/></filter></defs></svg>